# xmcd
#
# Track frame offsets:
#	150
#	17128
#	49257
#	64977
#	103196
#	139448
#	163042
#	173395
#	184814
#	196482
#
# Disc length: 2941 seconds
#
# Revision: 5
# Processed by: cddbd v1.5.2PL0 Copyright (c) Steve Scherf et al.
# Submitted via: audiograbber 1.83.01
#
DISCID=900b7b0a
DTITLE=Stefano Bollani - Omaggio alle Occasioni perdute - JAZZ ITALIANO LIVE 20
DTITLE=08
DYEAR=2008
DGENRE=Jazz
TTITLE0=Stefano Bollani - Bambina
TTITLE1=Stefano Bollani - Caos calmo
TTITLE2=Stefano Bollani - Gagongo
TTITLE3=Stefano Bollani - The Hamburg boogaloo
TTITLE4=Stefano Bollani - Roccamare
TTITLE5=Stefano Bollani - Tema di Lara
TTITLE6=Stefano Bollani - Alavi andiylu
TTITLE7=Stefano Bollani - Imprevisti
TTITLE8=Stefano Bollani - Vedi un pò
TTITLE9=Stefano Bollani - Bambina - alternative version
EXTD=YEAR: 2008
EXTT0=
EXTT1=
EXTT2=
EXTT3=
EXTT4=
EXTT5=
EXTT6=
EXTT7=
EXTT8=
EXTT9=
PLAYORDER=
